<svg width="57" height="10" viewBox="0 0 57 10" fill="none" xmlns="http://www.w3.org/2000/svg">
<path d="M8.26989 6.23677C8.13534 6.36423 8.07352 6.54857 8.10417 6.72935L8.56601 9.22781C8.60497 9.43957 8.51354 9.65387 8.33223 9.77625C8.15456 9.9032 7.91819 9.91844 7.72441 9.81687L5.42354 8.64382C5.34354 8.60218 5.2547 8.57983 5.16379 8.57729H5.023C4.97417 8.5844 4.92638 8.59964 4.88274 8.623L2.58134 9.80164C2.46757 9.8575 2.33873 9.87731 2.2125 9.8575C1.90495 9.80062 1.69975 9.51422 1.75014 9.21207L2.2125 6.71361C2.24315 6.5313 2.18133 6.34595 2.04677 6.21645L0.170852 4.4391C0.0139621 4.29031 -0.0405857 4.06687 0.0311056 3.86526C0.100719 3.66417 0.278389 3.51741 0.492943 3.4844L3.07487 3.11827C3.27124 3.09846 3.44372 2.98166 3.53203 2.80901L4.66974 0.528909C4.69676 0.478127 4.73156 0.431408 4.77364 0.391798L4.8204 0.356251C4.84481 0.329845 4.87287 0.308008 4.90404 0.290235L4.96066 0.269922L5.04898 0.234375H5.26769C5.46302 0.25418 5.63498 0.368439 5.72485 0.539065L6.87763 2.80901C6.96075 2.97506 7.12231 3.09034 7.30881 3.11827L9.89074 3.4844C10.1089 3.51487 10.2913 3.66214 10.3635 3.86526C10.4315 4.0689 10.3728 4.29234 10.2128 4.4391L8.26989 6.23677Z" fill="#FFB21D"/>
<path d="M19.9076 6.23677C19.773 6.36423 19.7112 6.54857 19.7419 6.72935L20.2037 9.22781C20.2427 9.43957 20.1512 9.65387 19.9699 9.77625C19.7923 9.9032 19.5559 9.91844 19.3621 9.81687L17.0612 8.64382C16.9812 8.60218 16.8924 8.57983 16.8015 8.57729H16.6607C16.6119 8.5844 16.5641 8.59964 16.5204 8.623L14.219 9.80164C14.1053 9.8575 13.9764 9.87731 13.8502 9.8575C13.5426 9.80062 13.3374 9.51422 13.3878 9.21207L13.8502 6.71361C13.8808 6.5313 13.819 6.34595 13.6845 6.21645L11.8085 4.4391C11.6517 4.29031 11.5971 4.06687 11.6688 3.86526C11.7384 3.66417 11.9161 3.51741 12.1306 3.4844L14.7126 3.11827C14.9089 3.09846 15.0814 2.98166 15.1697 2.80901L16.3074 0.528909C16.3345 0.478127 16.3693 0.431408 16.4113 0.391798L16.4581 0.356251C16.4825 0.329845 16.5106 0.308008 16.5417 0.290235L16.5984 0.269922L16.6867 0.234375H16.9054C17.1007 0.25418 17.2727 0.368439 17.3625 0.539065L18.5153 2.80901C18.5984 2.97506 18.76 3.09034 18.9465 3.11827L21.5284 3.4844C21.7466 3.51487 21.929 3.66214 22.0012 3.86526C22.0692 4.0689 22.0105 4.29234 21.8505 4.4391L19.9076 6.23677Z" fill="#FFB21D"/>
<path d="M31.5463 6.23677C31.4117 6.36423 31.3499 6.54857 31.3805 6.72935L31.8424 9.22781C31.8813 9.43957 31.7899 9.65387 31.6086 9.77625C31.4309 9.9032 31.1946 9.91844 31.0008 9.81687L28.6999 8.64382C28.6199 8.60218 28.5311 8.57983 28.4402 8.57729H28.2994C28.2505 8.5844 28.2027 8.59964 28.1591 8.623L25.8577 9.80164C25.7439 9.8575 25.6151 9.87731 25.4889 9.8575C25.1813 9.80062 24.9761 9.51422 25.0265 9.21207L25.4889 6.71361C25.5195 6.5313 25.4577 6.34595 25.3231 6.21645L23.4472 4.4391C23.2903 4.29031 23.2358 4.06687 23.3075 3.86526C23.3771 3.66417 23.5548 3.51741 23.7693 3.4844L26.3512 3.11827C26.5476 3.09846 26.7201 2.98166 26.8084 2.80901L27.9461 0.528909C27.9731 0.478127 28.0079 0.431408 28.05 0.391798L28.0968 0.356251C28.1212 0.329845 28.1492 0.308008 28.1804 0.290235L28.237 0.269922L28.3253 0.234375H28.5441C28.7394 0.25418 28.9113 0.368439 29.0012 0.539065L30.154 2.80901C30.2371 2.97506 30.3987 3.09034 30.5852 3.11827L33.1671 3.4844C33.3853 3.51487 33.5676 3.66214 33.6399 3.86526C33.7079 4.0689 33.6492 4.29234 33.4892 4.4391L31.5463 6.23677Z" fill="#FFB21D"/>
<path d="M43.1859 6.23677C43.0514 6.36423 42.9895 6.54857 43.0202 6.72935L43.482 9.22781C43.521 9.43957 43.4296 9.65387 43.2482 9.77625C43.0706 9.9032 42.8342 9.91844 42.6404 9.81687L40.3396 8.64382C40.2596 8.60218 40.1707 8.57983 40.0798 8.57729H39.939C39.8902 8.5844 39.8424 8.59964 39.7988 8.623L37.4974 9.80164C37.3836 9.8575 37.2548 9.87731 37.1285 9.8575C36.821 9.80062 36.6158 9.51422 36.6662 9.21207L37.1285 6.71361C37.1592 6.5313 37.0973 6.34595 36.9628 6.21645L35.0869 4.4391C34.93 4.29031 34.8754 4.06687 34.9471 3.86526C35.0167 3.66417 35.1944 3.51741 35.409 3.4844L37.9909 3.11827C38.1873 3.09846 38.3597 2.98166 38.448 2.80901L39.5858 0.528909C39.6128 0.478127 39.6476 0.431408 39.6897 0.391798L39.7364 0.356251C39.7608 0.329845 39.7889 0.308008 39.8201 0.290235L39.8767 0.269922L39.965 0.234375H40.1837C40.379 0.25418 40.551 0.368439 40.6409 0.539065L41.7936 2.80901C41.8768 2.97506 42.0383 3.09034 42.2248 3.11827L44.8068 3.4844C45.0249 3.51487 45.2073 3.66214 45.2795 3.86526C45.3476 4.0689 45.2889 4.29234 45.1288 4.4391L43.1859 6.23677Z" fill="#FFB21D"/>
<path d="M54.6957 6.23677C54.5611 6.36423 54.4993 6.54857 54.53 6.72935L54.9918 9.22781C55.0308 9.43957 54.9393 9.65387 54.758 9.77625C54.5803 9.9032 54.344 9.91844 54.1502 9.81687L51.8493 8.64382C51.7693 8.60218 51.6805 8.57983 51.5896 8.57729H51.4488C51.4 8.5844 51.3522 8.59964 51.3085 8.623L49.0071 9.80164C48.8934 9.8575 48.7645 9.87731 48.6383 9.8575C48.3307 9.80062 48.1255 9.51422 48.1759 9.21207L48.6383 6.71361C48.6689 6.5313 48.6071 6.34595 48.4726 6.21645L46.5966 4.4391C46.4397 4.29031 46.3852 4.06687 46.4569 3.86526C46.5265 3.66417 46.7042 3.51741 46.9187 3.4844L49.5007 3.11827C49.697 3.09846 49.8695 2.98166 49.9578 2.80901L51.0955 0.528909C51.1225 0.478127 51.1573 0.431408 51.1994 0.391798L51.2462 0.356251C51.2706 0.329845 51.2986 0.308008 51.3298 0.290235L51.3864 0.269922L51.4748 0.234375H51.6935C51.8888 0.25418 52.0608 0.368439 52.1506 0.539065L53.3034 2.80901C53.3865 2.97506 53.5481 3.09034 53.7346 3.11827L56.3165 3.4844C56.5347 3.51487 56.7171 3.66214 56.7893 3.86526C56.8573 4.0689 56.7986 4.29234 56.6386 4.4391L54.6957 6.23677Z" fill="#CDCDCD"/>
</svg>
